<svg width="218" height="1024" viewBox="0 0 218 1024" fill="none" xmlns="http://www.w3.org/2000/svg">
<mask id="path-1-outside-1_0_61" maskUnits="userSpaceOnUse" x="-0.514771" y="-54.3667" width="219" height="1174" fill="black">
<rect fill="white" x="-0.514771" y="-54.3667" width="219" height="1174"/>
<path d="M213.885 -53.0753V48.6247C213.885 66.0247 208.985 79.5247 199.185 89.1247C189.385 98.9247 176.385 103.825 160.185 103.825C152.185 103.825 145.385 102.725 139.785 100.525C134.185 98.5247 129.585 95.7247 125.985 92.1247C122.385 88.7247 119.685 84.6247 117.885 79.8247C116.285 75.2247 115.385 70.2247 115.185 64.8247H113.385C113.385 69.8247 112.485 75.0247 110.685 80.4247C108.885 86.0247 105.985 91.1247 101.985 95.7247C98.1852 100.325 93.1852 104.125 86.9852 107.125C80.7852 110.325 73.1852 111.925 64.1852 111.925C55.9852 111.925 48.1852 110.525 40.7852 107.725C33.5852 105.125 27.2852 101.425 21.8852 96.6247C16.4852 91.8247 12.1852 86.1247 8.98523 79.5247C5.98523 72.9247 4.48523 65.7247 4.48523 57.9247V-53.0753L213.885 -53.0753ZM42.8852 -7.47529V45.0247C42.8852 51.0247 44.4852 55.7247 47.6852 59.1247C51.0852 62.7247 55.7852 64.5247 61.7852 64.5247H71.9852C77.9852 64.5247 82.5852 62.7247 85.7852 59.1247C89.1852 55.7247 90.8852 51.0247 90.8852 45.0247V-7.47529H42.8852ZM128.085 -7.47529V37.8247C128.085 43.8247 129.785 48.5247 133.185 51.9247C136.585 55.3247 141.285 57.0247 147.285 57.0247H156.285C162.285 57.0247 166.985 55.3247 170.385 51.9247C173.785 48.5247 175.485 43.8247 175.485 37.8247V-7.47529H128.085ZM213.885 190.222H85.4852C70.6852 190.222 59.5852 193.122 52.1852 198.922C44.9852 204.722 41.3852 214.422 41.3852 228.022C41.3852 241.622 44.9852 251.322 52.1852 257.122C59.5852 262.922 70.6852 265.822 85.4852 265.822H213.885L213.885 310.222H90.2852C74.8852 310.222 61.4852 308.722 50.0852 305.722C38.8852 302.922 29.5852 298.222 22.1852 291.622C14.9852 285.022 9.58523 276.522 5.98523 266.122C2.58523 255.722 0.885229 243.022 0.885229 228.022C0.885229 213.022 2.58523 200.322 5.98523 189.922C9.58523 179.522 14.9852 171.022 22.1852 164.422C29.5852 157.822 38.8852 153.022 50.0852 150.022C61.4852 147.222 74.8852 145.822 90.2852 145.822H213.885V190.222ZM4.48523 400.923V355.323H213.885V454.623C213.885 464.223 212.285 472.923 209.085 480.723C205.885 488.523 201.285 495.123 195.285 500.523C189.485 506.123 182.485 510.423 174.285 513.423C166.085 516.423 156.985 517.923 146.985 517.923C132.785 517.923 120.385 514.723 109.785 508.323C99.1852 502.123 91.4852 492.623 86.6852 479.823L4.48523 520.923V470.223L81.2852 433.623V400.923H4.48523ZM119.685 448.923C119.685 455.723 121.385 461.023 124.785 464.823C128.385 468.823 133.585 470.823 140.385 470.823H153.585C160.385 470.823 165.485 468.823 168.885 464.823C172.485 461.023 174.285 455.723 174.285 448.923V400.923H119.685V448.923ZM37.7852 687.442V685.942C27.1852 684.342 18.3852 678.942 11.3852 669.742C4.38523 660.542 0.885229 648.042 0.885229 632.242C0.885229 620.242 3.18523 609.042 7.78523 598.642C12.3852 588.242 19.1852 579.142 28.1852 571.342C37.1852 563.542 48.3852 557.442 61.7852 553.042C75.1852 548.642 90.6852 546.442 108.285 546.442C125.885 546.442 141.485 548.742 155.085 553.342C168.685 557.942 180.085 564.342 189.285 572.542C198.485 580.942 205.485 590.942 210.285 602.542C215.085 614.142 217.485 627.042 217.485 641.242C217.485 660.042 213.385 676.242 205.185 689.842C197.185 703.442 185.085 714.142 168.885 721.942L147.585 684.742C155.785 681.542 162.685 676.542 168.285 669.742C174.085 662.942 176.985 653.442 176.985 641.242C176.985 627.042 172.885 615.742 164.685 607.342C156.485 598.942 143.585 594.742 125.985 594.742H92.3852C74.9852 594.742 62.0852 598.942 53.6852 607.342C45.4852 615.742 41.3852 627.042 41.3852 641.242C41.3852 646.842 41.9852 652.142 43.1852 657.142C44.5852 662.142 46.5852 666.542 49.1852 670.342C51.9852 674.142 55.2852 677.042 59.0852 679.042C62.8852 681.242 67.3852 682.342 72.5852 682.342H83.0852V643.342H121.185V725.842H4.48523V687.442H37.7852ZM4.48523 770.167H213.885V912.667H173.385V815.767H130.485L130.485 898.867H90.2852L90.2852 815.767H44.9852V912.667H4.48523V770.167ZM4.48523 997.993V952.393H213.885V1051.69C213.885 1061.29 212.285 1069.99 209.085 1077.79C205.885 1085.59 201.285 1092.19 195.285 1097.59C189.485 1103.19 182.485 1107.49 174.285 1110.49C166.085 1113.49 156.985 1114.99 146.985 1114.99C132.785 1114.99 120.385 1111.79 109.785 1105.39C99.1852 1099.19 91.4852 1089.69 86.6852 1076.89L4.48523 1117.99V1067.29L81.2852 1030.69V997.993H4.48523ZM119.685 1045.99C119.685 1052.79 121.385 1058.09 124.785 1061.89C128.385 1065.89 133.585 1067.89 140.385 1067.89H153.585C160.385 1067.89 165.485 1065.89 168.885 1061.89C172.485 1058.09 174.285 1052.79 174.285 1045.99V997.993H119.685V1045.99Z"/>
</mask>
<path d="M213.885 -53.0753H214.885V-54.0753H213.885V-53.0753ZM199.185 89.1247L198.485 88.4103L198.478 88.4176L199.185 89.1247ZM139.785 100.525L140.151 99.594L140.136 99.5882L140.122 99.583L139.785 100.525ZM125.985 92.1247L126.692 91.4176L126.682 91.4075L126.672 91.3977L125.985 92.1247ZM117.885 79.8247L116.941 80.1532L116.945 80.1646L116.949 80.1758L117.885 79.8247ZM115.185 64.8247L116.185 64.7877L116.149 63.8247H115.185V64.8247ZM113.385 64.8247V63.8247H112.385V64.8247H113.385ZM110.685 80.4247L109.736 80.1085L109.733 80.1187L110.685 80.4247ZM101.985 95.7247L101.231 95.0685L101.222 95.0781L101.214 95.0878L101.985 95.7247ZM86.9852 107.125L86.5497 106.225L86.5381 106.23L86.5266 106.236L86.9852 107.125ZM40.7852 107.725L41.1391 106.789L41.132 106.787L41.1249 106.784L40.7852 107.725ZM21.8852 96.6247L22.5496 95.8773L21.8852 96.6247ZM8.98523 79.5247L8.07486 79.9385L8.08 79.9498L8.08542 79.961L8.98523 79.5247ZM4.48523 -53.0753V-54.0753H3.48523V-53.0753H4.48523ZM42.8852 -7.47529V-8.47529H41.8852V-7.47529H42.8852ZM47.6852 59.1247L46.957 59.8101L46.9582 59.8113L47.6852 59.1247ZM85.7852 59.1247L85.0781 58.4176L85.0574 58.4384L85.0378 58.4604L85.7852 59.1247ZM90.8852 -7.47529H91.8852V-8.47529H90.8852V-7.47529ZM128.085 -7.47529V-8.47529H127.085V-7.47529H128.085ZM133.185 51.9247L133.892 51.2176L133.185 51.9247ZM170.385 51.9247L169.678 51.2176H169.678L170.385 51.9247ZM175.485 -7.47529H176.485V-8.47529H175.485V-7.47529ZM212.885 -53.0753V48.6247H214.885V-53.0753H212.885ZM212.885 48.6247C212.885 65.832 208.045 79.0457 198.485 88.4104L199.885 89.8391C209.925 80.0037 214.885 66.2174 214.885 48.6247H212.885ZM198.478 88.4176C188.897 97.9984 176.168 102.825 160.185 102.825V104.825C176.602 104.825 189.873 99.851 199.892 89.8318L198.478 88.4176ZM160.185 102.825C152.271 102.825 145.603 101.736 140.151 99.594L139.42 101.455C145.168 103.714 152.099 104.825 160.185 104.825V102.825ZM140.122 99.583C134.638 97.6245 130.171 94.8967 126.692 91.4176L125.278 92.8318C128.999 96.5527 133.733 99.425 139.449 101.466L140.122 99.583ZM126.672 91.3977C123.187 88.1061 120.57 84.1361 118.822 79.4736L116.949 80.1758C118.8 85.1133 121.584 89.3434 125.299 92.8517L126.672 91.3977ZM118.83 79.4962C117.266 74.9998 116.381 70.0991 116.185 64.7877L114.186 64.8617C114.389 70.3503 115.305 75.4497 116.941 80.1532L118.83 79.4962ZM115.185 63.8247H113.385V65.8247H115.185V63.8247ZM112.385 64.8247C112.385 69.7035 111.507 74.7966 109.737 80.1085L111.634 80.7409C113.463 75.2529 114.385 69.9459 114.385 64.8247H112.385ZM109.733 80.1187C107.976 85.5851 105.145 90.5669 101.231 95.0685L102.74 96.3809C106.825 91.6825 109.794 86.4643 111.637 80.7307L109.733 80.1187ZM101.214 95.0878C97.519 99.5611 92.6401 103.278 86.5497 106.225L87.4208 108.025C93.7303 104.972 98.8515 101.088 102.756 96.3616L101.214 95.0878ZM86.5266 106.236C80.5035 109.345 73.0705 110.925 64.1852 110.925V112.925C73.3 112.925 81.067 111.305 87.4439 108.013L86.5266 106.236ZM64.1852 110.925C56.1017 110.925 48.4219 109.545 41.1391 106.789L40.4313 108.66C47.9485 111.504 55.8688 112.925 64.1852 112.925V110.925ZM41.1249 106.784C34.0372 104.225 27.849 100.588 22.5496 95.8773L21.2209 97.3721C26.7214 102.262 33.1333 106.025 40.4456 108.665L41.1249 106.784ZM22.5496 95.8773C17.2493 91.1659 13.0286 85.5721 9.88504 79.0885L8.08542 79.961C11.3418 86.6773 15.7212 92.4835 21.2209 97.3721L22.5496 95.8773ZM9.8956 79.1109C6.95906 72.6505 5.48523 65.593 5.48523 57.9247H3.48523C3.48523 65.8565 5.0114 73.1989 8.07486 79.9385L9.8956 79.1109ZM5.48523 57.9247V-53.0753H3.48523V57.9247H5.48523ZM4.48523 -52.0753L213.885 -52.0753V-54.0753L4.48523 -54.0753V-52.0753ZM41.8852 -7.47529V45.0247H43.8852V-7.47529H41.8852ZM41.8852 45.0247C41.8852 51.2042 43.5369 56.1762 46.957 59.8101L48.4134 58.4393C45.4336 55.2732 43.8852 50.8453 43.8852 45.0247H41.8852ZM46.9582 59.8113C50.5863 63.6528 55.5728 65.5247 61.7852 65.5247V63.5247C55.9977 63.5247 51.5842 61.7966 48.4122 58.4381L46.9582 59.8113ZM61.7852 65.5247H71.9852V63.5247H61.7852V65.5247ZM71.9852 65.5247C78.1952 65.5247 83.0978 63.6532 86.5326 59.7891L85.0378 58.4604C82.0726 61.7962 77.7752 63.5247 71.9852 63.5247V65.5247ZM86.4923 59.8318C90.1239 56.2003 91.8852 51.2205 91.8852 45.0247H89.8852C89.8852 50.829 88.2466 55.2491 85.0781 58.4176L86.4923 59.8318ZM91.8852 45.0247V-7.47529H89.8852V45.0247H91.8852ZM90.8852 -8.47529H42.8852V-6.47529H90.8852V-8.47529ZM127.085 -7.47529V37.8247H129.085V-7.47529H127.085ZM127.085 37.8247C127.085 44.0205 128.847 49.0003 132.478 52.6318L133.892 51.2176C130.724 48.0491 129.085 43.629 129.085 37.8247H127.085ZM132.478 52.6318C136.11 56.2634 141.089 58.0247 147.285 58.0247V56.0247C141.481 56.0247 137.061 54.3861 133.892 51.2176L132.478 52.6318ZM147.285 58.0247H156.285V56.0247H147.285V58.0247ZM156.285 58.0247C162.481 58.0247 167.461 56.2634 171.092 52.6318L169.678 51.2176C166.51 54.3861 162.089 56.0247 156.285 56.0247V58.0247ZM171.092 52.6318C174.724 49.0003 176.485 44.0205 176.485 37.8247H174.485C174.485 43.629 172.847 48.0491 169.678 51.2176L171.092 52.6318ZM176.485 37.8247V-7.47529H174.485V37.8247H176.485ZM175.485 -8.47529H128.085V-6.47529H175.485V-8.47529ZM213.885 190.222V191.222H214.885V190.222H213.885ZM52.1852 198.922L51.5683 198.135L51.5579 198.144L52.1852 198.922ZM52.1852 257.122L51.5578 257.901L51.5683 257.909L52.1852 257.122ZM213.885 265.822H214.885V264.822H213.885V265.822ZM213.885 310.222V311.222H214.885V310.222H213.885ZM50.0852 305.722L50.3398 304.755L50.3278 304.752L50.0852 305.722ZM22.1852 291.622L21.5094 292.36L21.5196 292.369L22.1852 291.622ZM5.98523 266.122L5.03473 266.433L5.03741 266.441L5.04024 266.449L5.98523 266.122ZM5.98523 189.922L5.04024 189.595L5.03741 189.603L5.03473 189.612L5.98523 189.922ZM22.1852 164.422L21.5195 163.676L21.5095 163.685L22.1852 164.422ZM50.0852 150.022L49.8467 149.051L49.8366 149.054L49.8265 149.056L50.0852 150.022ZM213.885 145.822H214.885V144.822H213.885V145.822ZM213.885 189.222H85.4852V191.222H213.885V189.222ZM85.4852 189.222C70.5819 189.222 59.2201 192.138 51.5683 198.135L52.8021 199.709C59.9503 194.107 70.7886 191.222 85.4852 191.222V189.222ZM51.5579 198.144C44.0276 204.21 40.3852 214.267 40.3852 228.022H42.3852C42.3852 214.578 45.9428 205.235 52.8126 199.701L51.5579 198.144ZM40.3852 228.022C40.3852 241.778 44.0276 251.835 51.5579 257.901L52.8126 256.344C45.9428 250.81 42.3852 241.467 42.3852 228.022H40.3852ZM51.5683 257.909C59.2201 263.907 70.5819 266.822 85.4852 266.822V264.822C70.7886 264.822 59.9503 261.938 52.8021 256.335L51.5683 257.909ZM85.4852 266.822H213.885V264.822H85.4852V266.822ZM212.885 265.822L212.885 310.222H214.885L214.885 265.822H212.885ZM213.885 309.222H90.2852V311.222H213.885V309.222ZM90.2852 309.222C74.9465 309.222 61.6358 307.728 50.3397 304.755L49.8307 306.689C61.3347 309.717 74.824 311.222 90.2852 311.222V309.222ZM50.3278 304.752C39.259 301.985 30.1116 297.352 22.8508 290.876L21.5196 292.369C29.0589 299.093 38.5115 303.86 49.8427 306.693L50.3278 304.752ZM22.861 290.885C15.7982 284.411 10.4829 276.059 6.93022 265.795L5.04024 266.449C8.68758 276.986 14.1723 285.634 21.5095 292.36L22.861 290.885ZM6.93573 265.812C3.57816 255.541 1.88522 242.953 1.88522 228.022H-0.114777C-0.114777 243.092 1.5923 255.903 5.03473 266.433L6.93573 265.812ZM1.88522 228.022C1.88522 213.092 3.57816 200.503 6.93573 190.233L5.03473 189.612C1.5923 200.141 -0.114777 212.953 -0.114777 228.022H1.88522ZM6.93022 190.249C10.4829 179.986 15.7982 171.634 22.861 165.16L21.5095 163.685C14.1723 170.411 8.68758 179.059 5.04024 189.595L6.93022 190.249ZM22.8508 165.169C30.116 158.689 39.2694 153.955 50.344 150.988L49.8265 149.056C38.5011 152.09 29.0544 156.956 21.5196 163.676L22.8508 165.169ZM50.3238 150.993C61.6258 148.218 74.9422 146.822 90.2852 146.822V144.822C74.8282 144.822 61.3446 146.227 49.8467 149.051L50.3238 150.993ZM90.2852 146.822H213.885V144.822H90.2852V146.822ZM212.885 145.822V190.222H214.885V145.822H212.885ZM4.48523 400.923H3.48523V401.923H4.48523V400.923ZM4.48523 355.323V354.323H3.48523V355.323H4.48523ZM213.885 355.323H214.885V354.323H213.885V355.323ZM209.085 480.723L210.01 481.103H210.01L209.085 480.723ZM195.285 500.523L194.616 499.78L194.603 499.792L194.591 499.804L195.285 500.523ZM109.785 508.323L110.302 507.467L110.29 507.46L109.785 508.323ZM86.6852 479.823L87.6216 479.472L87.2315 478.432L86.238 478.929L86.6852 479.823ZM4.48523 520.923H3.48523V522.541L4.93245 521.818L4.48523 520.923ZM4.48523 470.223L4.05502 469.32L3.48523 469.592V470.223H4.48523ZM81.2852 433.623L81.7154 434.526L82.2852 434.254V433.623H81.2852ZM81.2852 400.923H82.2852V399.923H81.2852V400.923ZM124.785 464.823L124.04 465.49L124.042 465.492L124.785 464.823ZM168.885 464.823L168.159 464.135L168.141 464.155L168.123 464.175L168.885 464.823ZM174.285 400.923H175.285V399.923H174.285V400.923ZM119.685 400.923V399.923H118.685V400.923H119.685ZM5.48523 400.923V355.323H3.48523V400.923H5.48523ZM4.48523 356.323H213.885V354.323H4.48523V356.323ZM212.885 355.323V454.623H214.885V355.323H212.885ZM212.885 454.623C212.885 464.111 211.304 472.68 208.16 480.344L210.01 481.103C213.266 473.167 214.885 464.335 214.885 454.623H212.885ZM208.16 480.344C205.014 488.011 200.5 494.485 194.616 499.78L195.954 501.266C202.071 495.761 206.756 489.035 210.01 481.103L208.16 480.344ZM194.591 499.804C188.899 505.299 182.022 509.528 173.942 512.484L174.629 514.362C182.949 511.318 190.071 506.947 195.98 501.243L194.591 499.804ZM173.942 512.484C165.866 515.438 156.885 516.923 146.985 516.923V518.923C157.086 518.923 166.304 517.408 174.629 514.362L173.942 512.484ZM146.985 516.923C132.94 516.923 120.724 513.76 110.302 507.467L109.268 509.179C120.046 515.687 132.63 518.923 146.985 518.923V516.923ZM110.29 507.46C99.9111 501.389 92.3506 492.083 87.6216 479.472L85.7489 480.174C90.6199 493.164 98.4593 502.857 109.28 509.186L110.29 507.46ZM86.238 478.929L4.03801 520.029L4.93245 521.818L87.1324 480.718L86.238 478.929ZM5.48523 520.923V470.223H3.48523V520.923H5.48523ZM4.91544 471.126L81.7154 434.526L80.855 432.72L4.05502 469.32L4.91544 471.126ZM82.2852 433.623V400.923H80.2852V433.623H82.2852ZM81.2852 399.923H4.48523V401.923H81.2852V399.923ZM118.685 448.923C118.685 455.886 120.428 461.453 124.04 465.49L125.53 464.156C122.343 460.594 120.685 455.56 120.685 448.923H118.685ZM124.042 465.492C127.879 469.756 133.382 471.823 140.385 471.823V469.823C133.789 469.823 128.891 467.891 125.529 464.154L124.042 465.492ZM140.385 471.823H153.585V469.823H140.385V471.823ZM153.585 471.823C160.586 471.823 166.004 469.757 169.647 465.471L168.123 464.175C164.966 467.89 160.185 469.823 153.585 469.823V471.823ZM169.611 465.511C173.435 461.475 175.285 455.9 175.285 448.923H173.285C173.285 455.546 171.536 460.572 168.159 464.135L169.611 465.511ZM175.285 448.923V400.923H173.285V448.923H175.285ZM174.285 399.923H119.685V401.923H174.285V399.923ZM118.685 400.923V448.923H120.685V400.923H118.685ZM37.7852 687.442V688.442H38.7852V687.442H37.7852ZM37.7852 685.942H38.7852V685.082L37.9345 684.953L37.7852 685.942ZM11.3852 669.742L12.1811 669.136L11.3852 669.742ZM7.78523 598.642L6.8707 598.237L7.78523 598.642ZM28.1852 571.342L27.5303 570.586L28.1852 571.342ZM61.7852 553.042L62.0972 553.992L61.7852 553.042ZM155.085 553.342L154.765 554.289L155.085 553.342ZM189.285 572.542L189.96 571.803L189.951 571.795L189.285 572.542ZM210.285 602.542L209.361 602.924L210.285 602.542ZM205.185 689.842L204.329 689.326L204.323 689.335L205.185 689.842ZM168.885 721.942L168.017 722.439L168.48 723.247L169.319 722.843L168.885 721.942ZM147.585 684.742L147.222 683.81L146.141 684.232L146.717 685.239L147.585 684.742ZM168.285 669.742L167.524 669.093L167.519 669.1L167.513 669.106L168.285 669.742ZM164.685 607.342L163.97 608.04L164.685 607.342ZM53.6852 607.342L52.9781 606.635L52.9697 606.643L53.6852 607.342ZM43.1852 657.142L42.2128 657.375L42.2172 657.393L42.2223 657.412L43.1852 657.142ZM49.1852 670.342L48.3599 670.907L48.3698 670.921L48.3802 670.935L49.1852 670.342ZM59.0852 679.042L59.5863 678.176L59.5688 678.166L59.551 678.157L59.0852 679.042ZM83.0852 682.342V683.342H84.0852V682.342H83.0852ZM83.0852 643.342V642.342H82.0852V643.342H83.0852ZM121.185 643.342H122.185V642.342H121.185V643.342ZM121.185 725.842V726.842H122.185V725.842H121.185ZM4.48523 725.842H3.48523V726.842H4.48523V725.842ZM4.48523 687.442V686.442H3.48523V687.442H4.48523ZM38.7852 687.442V685.942H36.7852V687.442H38.7852ZM37.9345 684.953C27.613 683.395 19.0372 678.147 12.1811 669.136L10.5894 670.347C17.7333 679.737 26.7575 685.289 37.636 686.931L37.9345 684.953ZM12.1811 669.136C5.35452 660.164 1.88522 647.902 1.88522 632.242H-0.114777C-0.114777 648.182 3.41594 660.919 10.5894 670.347L12.1811 669.136ZM1.88522 632.242C1.88522 620.373 4.15921 609.312 8.69977 599.046L6.8707 598.237C2.21126 608.772 -0.114777 620.11 -0.114777 632.242H1.88522ZM8.69977 599.046C13.2373 588.788 19.9461 579.806 28.8402 572.098L27.5303 570.586C18.4243 578.478 11.5331 587.696 6.8707 598.237L8.69977 599.046ZM28.8402 572.098C37.7232 564.399 48.8005 558.358 62.0972 553.992L61.4733 552.092C47.97 556.526 36.6473 562.685 27.5303 570.586L28.8402 572.098ZM62.0972 553.992C75.3751 549.632 90.7661 547.442 108.285 547.442V545.442C90.6044 545.442 74.9953 547.652 61.4733 552.092L62.0972 553.992ZM108.285 547.442C125.8 547.442 141.288 549.731 154.765 554.289L155.406 552.395C141.682 547.753 125.97 545.442 108.285 545.442V547.442ZM154.765 554.289C168.258 558.853 179.535 565.191 188.62 573.288L189.951 571.795C180.635 563.492 169.112 557.031 155.406 552.395L154.765 554.289ZM188.611 573.28C197.702 581.581 204.617 591.459 209.361 602.924L211.209 602.16C206.354 590.425 199.269 580.303 189.96 571.803L188.611 573.28ZM209.361 602.924C214.105 614.388 216.485 627.156 216.485 641.242H218.485C218.485 626.928 216.066 613.896 211.209 602.16L209.361 602.924ZM216.485 641.242C216.485 659.894 212.419 675.908 204.329 689.326L206.042 690.358C214.352 676.576 218.485 660.19 218.485 641.242H216.485ZM204.323 689.335C196.437 702.741 184.499 713.315 168.451 721.041L169.319 722.843C185.672 714.969 197.933 704.143 206.047 690.349L204.323 689.335ZM169.753 721.445L148.453 684.245L146.717 685.239L168.017 722.439L169.753 721.445ZM147.949 685.673C156.308 682.411 163.349 677.309 169.057 670.378L167.513 669.106C162.022 675.774 155.262 680.672 147.222 683.81L147.949 685.673ZM169.046 670.391C175.049 663.353 177.985 653.593 177.985 641.242H175.985C175.985 653.291 173.122 662.531 167.524 669.093L169.046 670.391ZM177.985 641.242C177.985 626.839 173.82 615.268 165.401 606.643L163.97 608.04C171.95 616.216 175.985 627.245 175.985 641.242H177.985ZM165.401 606.643C156.936 597.972 143.721 593.742 125.985 593.742V595.742C143.449 595.742 156.034 599.911 163.97 608.04L165.401 606.643ZM125.985 593.742H92.3852V595.742H125.985V593.742ZM92.3852 593.742C74.843 593.742 61.6376 597.975 52.9781 606.635L54.3923 608.049C62.5328 599.909 75.1275 595.742 92.3852 595.742V593.742ZM52.9697 606.643C44.5503 615.268 40.3852 626.839 40.3852 641.242H42.3852C42.3852 627.245 46.4201 616.216 54.4008 608.04L52.9697 606.643ZM40.3852 641.242C40.3852 646.914 40.993 652.292 42.2128 657.375L44.1576 656.909C42.9775 651.991 42.3852 646.77 42.3852 641.242H40.3852ZM42.2223 657.412C43.648 662.503 45.6909 667.006 48.3599 670.907L50.0105 669.777C47.4796 666.078 45.5224 661.78 44.1482 656.872L42.2223 657.412ZM48.3802 670.935C51.2608 674.844 54.673 677.85 58.6195 679.927L59.551 678.157C55.8975 676.234 52.7097 673.439 49.9903 669.749L48.3802 670.935ZM58.5842 679.907C62.5624 682.211 67.2419 683.342 72.5852 683.342V681.342C67.5286 681.342 63.2081 680.273 59.5863 678.176L58.5842 679.907ZM72.5852 683.342H83.0852V681.342H72.5852V683.342ZM84.0852 682.342V643.342H82.0852V682.342H84.0852ZM83.0852 644.342H121.185V642.342H83.0852V644.342ZM120.185 643.342V725.842H122.185V643.342H120.185ZM121.185 724.842H4.48523V726.842H121.185V724.842ZM5.48523 725.842V687.442H3.48523V725.842H5.48523ZM4.48523 688.442H37.7852V686.442H4.48523V688.442ZM4.48523 770.167V769.167H3.48523V770.167H4.48523ZM213.885 770.167H214.885V769.167H213.885V770.167ZM213.885 912.667V913.667H214.885V912.667H213.885ZM173.385 912.667H172.385V913.667H173.385V912.667ZM173.385 815.767H174.385V814.767H173.385V815.767ZM130.485 815.767V814.767H129.485V815.767H130.485ZM130.485 898.867V899.867H131.485V898.867H130.485ZM90.2852 898.867H89.2852V899.867H90.2852V898.867ZM90.2852 815.767H91.2852V814.767H90.2852V815.767ZM44.9852 815.767V814.767H43.9852V815.767H44.9852ZM44.9852 912.667V913.667H45.9852V912.667H44.9852ZM4.48523 912.667H3.48523V913.667H4.48523V912.667ZM4.48523 771.167H213.885V769.167H4.48523V771.167ZM212.885 770.167V912.667H214.885V770.167H212.885ZM213.885 911.667H173.385V913.667H213.885V911.667ZM174.385 912.667V815.767H172.385V912.667H174.385ZM173.385 814.767H130.485V816.767H173.385V814.767ZM129.485 815.767L129.485 898.867H131.485L131.485 815.767H129.485ZM130.485 897.867H90.2852V899.867H130.485V897.867ZM91.2852 898.867L91.2852 815.767H89.2852L89.2852 898.867H91.2852ZM90.2852 814.767H44.9852V816.767H90.2852V814.767ZM43.9852 815.767V912.667H45.9852V815.767H43.9852ZM44.9852 911.667H4.48523V913.667H44.9852V911.667ZM5.48523 912.667V770.167H3.48523V912.667H5.48523ZM4.48523 997.993H3.48523V998.993H4.48523V997.993ZM4.48523 952.393V951.393H3.48523V952.393H4.48523ZM213.885 952.393H214.885V951.393H213.885V952.393ZM209.085 1077.79L210.01 1078.17H210.01L209.085 1077.79ZM195.285 1097.59L194.616 1096.85L194.603 1096.86L194.591 1096.87L195.285 1097.59ZM109.785 1105.39L110.302 1104.54L110.29 1104.53L109.785 1105.39ZM86.6852 1076.89L87.6216 1076.54L87.2315 1075.5L86.238 1076L86.6852 1076.89ZM4.48523 1117.99H3.48523V1119.61L4.93245 1118.89L4.48523 1117.99ZM4.48523 1067.29L4.05502 1066.39L3.48523 1066.66V1067.29H4.48523ZM81.2852 1030.69L81.7154 1031.6L82.2852 1031.32V1030.69H81.2852ZM81.2852 997.993H82.2852V996.993H81.2852V997.993ZM124.785 1061.89L124.04 1062.56L124.042 1062.56L124.785 1061.89ZM168.885 1061.89L168.159 1061.21L168.141 1061.23L168.123 1061.25L168.885 1061.89ZM174.285 997.993H175.285V996.993H174.285V997.993ZM119.685 997.993V996.993H118.685V997.993H119.685ZM5.48523 997.993V952.393H3.48523V997.993H5.48523ZM4.48523 953.393H213.885V951.393H4.48523V953.393ZM212.885 952.393V1051.69H214.885L214.885 952.393H212.885ZM212.885 1051.69C212.885 1061.18 211.304 1069.75 208.16 1077.41L210.01 1078.17C213.266 1070.24 214.885 1061.41 214.885 1051.69H212.885ZM208.16 1077.41C205.014 1085.08 200.5 1091.56 194.616 1096.85L195.954 1098.34C202.071 1092.83 206.756 1086.11 210.01 1078.17L208.16 1077.41ZM194.591 1096.87C188.899 1102.37 182.022 1106.6 173.942 1109.55L174.629 1111.43C182.949 1108.39 190.071 1104.02 195.98 1098.31L194.591 1096.87ZM173.942 1109.55C165.866 1112.51 156.885 1113.99 146.985 1113.99V1115.99C157.086 1115.99 166.304 1114.48 174.629 1111.43L173.942 1109.55ZM146.985 1113.99C132.94 1113.99 120.724 1110.83 110.302 1104.54L109.268 1106.25C120.046 1112.76 132.63 1115.99 146.985 1115.99V1113.99ZM110.29 1104.53C99.9111 1098.46 92.3506 1089.15 87.6216 1076.54L85.7489 1077.24C90.6199 1090.23 98.4593 1099.93 109.28 1106.26L110.29 1104.53ZM86.238 1076L4.03801 1117.1L4.93245 1118.89L87.1324 1077.79L86.238 1076ZM5.48523 1117.99V1067.29H3.48523V1117.99H5.48523ZM4.91544 1068.2L81.7154 1031.6L80.855 1029.79L4.05502 1066.39L4.91544 1068.2ZM82.2852 1030.69V997.993H80.2852V1030.69H82.2852ZM81.2852 996.993H4.48523V998.993H81.2852V996.993ZM118.685 1045.99C118.685 1052.96 120.428 1058.52 124.04 1062.56L125.53 1061.23C122.343 1057.66 120.685 1052.63 120.685 1045.99H118.685ZM124.042 1062.56C127.879 1066.83 133.382 1068.89 140.385 1068.89V1066.89C133.789 1066.89 128.891 1064.96 125.529 1061.22L124.042 1062.56ZM140.385 1068.89H153.585V1066.89H140.385V1068.89ZM153.585 1068.89C160.586 1068.89 166.004 1066.83 169.647 1062.54L168.123 1061.25C164.966 1064.96 160.185 1066.89 153.585 1066.89V1068.89ZM169.611 1062.58C173.435 1058.55 175.285 1052.97 175.285 1045.99H173.285C173.285 1052.62 171.536 1057.64 168.159 1061.21L169.611 1062.58ZM175.285 1045.99V997.993H173.285V1045.99H175.285ZM174.285 996.993H119.685V998.993H174.285V996.993ZM118.685 997.993V1045.99H120.685V997.993H118.685Z" fill="white" fill-opacity="0.5" mask="url(#path-1-outside-1_0_61)"/>
</svg>
