<svg width="111" height="62" viewBox="0 0 111 62" fill="none" xmlns="http://www.w3.org/2000/svg">
<path d="M22.1471 17.576C22.1471 19.208 21.7471 20.664 20.9471 21.944C20.1631 23.224 19.0671 24.224 17.6591 24.944C16.2671 25.648 14.6911 26 12.9311 26H7.00313V9.152H12.9311C14.7071 9.152 16.2911 9.504 17.6831 10.208C19.0751 10.912 20.1631 11.904 20.9471 13.184C21.7471 14.464 22.1471 15.928 22.1471 17.576ZM12.9311 22.88C14.4991 22.88 15.7311 22.4 16.6271 21.44C17.5231 20.48 17.9711 19.192 17.9711 17.576C17.9711 15.96 17.5231 14.672 16.6271 13.712C15.7311 12.752 14.4991 12.272 12.9311 12.272H11.1071V22.88H12.9311ZM29.8573 12.464C31.5693 12.464 32.8813 13.096 33.7933 14.36V12.608H37.8973V26H33.7933V24.056C32.8013 25.464 31.4893 26.168 29.8573 26.168C28.7533 26.168 27.7293 25.88 26.7853 25.304C25.8573 24.728 25.1213 23.92 24.5773 22.88C24.0333 21.84 23.7613 20.656 23.7613 19.328C23.7613 18 24.0333 16.816 24.5773 15.776C25.1213 14.736 25.8573 13.928 26.7853 13.352C27.7293 12.76 28.7533 12.464 29.8573 12.464ZM30.8653 16.016C30.3853 16.016 29.9133 16.144 29.4493 16.4C29.0013 16.64 28.6333 17.008 28.3453 17.504C28.0733 18 27.9373 18.608 27.9373 19.328C27.9373 20.048 28.0733 20.656 28.3453 21.152C28.6333 21.632 29.0013 22 29.4493 22.256C29.8973 22.496 30.3693 22.616 30.8653 22.616C31.3453 22.616 31.8093 22.496 32.2573 22.256C32.7213 22 33.0893 21.624 33.3613 21.128C33.6493 20.632 33.7933 20.024 33.7933 19.304C33.7933 18.584 33.6493 17.984 33.3613 17.504C33.0893 17.008 32.7293 16.64 32.2813 16.4C31.8333 16.144 31.3613 16.016 30.8653 16.016ZM47.3591 16.016H45.6551V26H41.5511V16.016H40.3031V12.608H41.5511V12.104C41.5511 10.408 41.9991 9.168 42.8951 8.384C43.8071 7.6 45.2311 7.208 47.1671 7.208V10.688C46.6231 10.688 46.2311 10.792 45.9911 11C45.7671 11.208 45.6551 11.576 45.6551 12.104V12.608H47.3591V16.016ZM62.0936 19.352C62.0936 19.816 62.0616 20.248 61.9976 20.648H52.7816C52.8616 21.24 53.1256 21.728 53.5736 22.112C54.0216 22.48 54.5816 22.664 55.2536 22.664C55.7656 22.664 56.1496 22.592 56.4056 22.448C56.6616 22.288 56.9336 22.032 57.2216 21.68H61.6616C61.2776 23.024 60.5096 24.112 59.3576 24.944C58.2056 25.76 56.8376 26.168 55.2536 26.168C53.9736 26.168 52.8216 25.888 51.7976 25.328C50.7896 24.768 49.9976 23.968 49.4216 22.928C48.8616 21.872 48.5816 20.656 48.5816 19.28C48.5816 17.904 48.8616 16.704 49.4216 15.68C49.9976 14.64 50.7896 13.848 51.7976 13.304C52.8056 12.744 53.9496 12.464 55.2296 12.464C56.5256 12.464 57.6936 12.736 58.7336 13.28C59.7736 13.808 60.5896 14.592 61.1816 15.632C61.7896 16.672 62.0936 17.912 62.0936 19.352ZM57.8216 18.08C57.7576 17.456 57.4856 16.952 57.0056 16.568C56.5256 16.168 55.9336 15.968 55.2296 15.968C54.6216 15.968 54.0936 16.168 53.6456 16.568C53.1976 16.952 52.9176 17.456 52.8056 18.08H57.8216ZM67.0337 5.84C67.3537 6.8 67.5137 7.744 67.5137 8.672C67.5137 9.792 67.2257 10.68 66.6497 11.336C66.0897 11.992 65.2577 12.32 64.1537 12.32V10.76C64.9857 10.76 65.4017 10.232 65.4017 9.176V8.792H63.8897V5.84H67.0337ZM75.1564 12.464C76.7564 12.464 78.0844 12.856 79.1404 13.64C80.1964 14.424 80.7564 15.496 80.8204 16.856H76.6204C76.5724 16.392 76.4124 16.08 76.1404 15.92C75.8684 15.744 75.4604 15.656 74.9164 15.656C74.4044 15.656 74.0044 15.744 73.7164 15.92C73.4444 16.08 73.3084 16.32 73.3084 16.64C73.3084 17.008 73.5084 17.28 73.9084 17.456C74.3244 17.616 74.9964 17.8 75.9244 18.008C76.9324 18.216 77.7644 18.44 78.4204 18.68C79.0924 18.904 79.6684 19.28 80.1484 19.808C80.6284 20.32 80.8684 21.024 80.8684 21.92C80.8684 22.752 80.6204 23.488 80.1244 24.128C79.6444 24.768 78.9724 25.272 78.1084 25.64C77.2604 25.992 76.3084 26.168 75.2524 26.168C73.5884 26.168 72.2124 25.8 71.1244 25.064C70.0364 24.312 69.4444 23.208 69.3484 21.752H73.5484C73.6124 22.184 73.7884 22.496 74.0764 22.688C74.3644 22.88 74.7644 22.976 75.2764 22.976C75.7564 22.976 76.1484 22.864 76.4524 22.64C76.7724 22.416 76.9324 22.144 76.9324 21.824C76.9324 21.44 76.7164 21.16 76.2844 20.984C75.8524 20.792 75.1724 20.6 74.2444 20.408C73.2364 20.2 72.4044 19.984 71.7484 19.76C71.1084 19.536 70.5484 19.176 70.0684 18.68C69.6044 18.168 69.3724 17.488 69.3724 16.64C69.3724 15.872 69.5884 15.176 70.0204 14.552C70.4684 13.912 71.1244 13.408 71.9884 13.04C72.8684 12.656 73.9244 12.464 75.1564 12.464Z" fill="white"/>
<path d="M33.9259 35.464C35.0299 35.464 36.0459 35.76 36.9739 36.352C37.9179 36.928 38.6619 37.736 39.2059 38.776C39.7499 39.816 40.0219 41 40.0219 42.328C40.0219 43.656 39.7499 44.84 39.2059 45.88C38.6619 46.92 37.9179 47.728 36.9739 48.304C36.0459 48.88 35.0299 49.168 33.9259 49.168C32.2619 49.168 30.9499 48.464 29.9899 47.056V49H25.8859V31.24H29.9899V37.36C30.9019 36.096 32.2139 35.464 33.9259 35.464ZM32.9179 39.016C32.4219 39.016 31.9499 39.144 31.5019 39.4C31.0539 39.64 30.6859 40.008 30.3979 40.504C30.1259 40.984 29.9899 41.584 29.9899 42.304C29.9899 43.024 30.1259 43.632 30.3979 44.128C30.6859 44.624 31.0539 45 31.5019 45.256C31.9659 45.496 32.4379 45.616 32.9179 45.616C33.4139 45.616 33.8859 45.496 34.3339 45.256C34.7819 45 35.1419 44.632 35.4139 44.152C35.7019 43.656 35.8459 43.048 35.8459 42.328C35.8459 41.608 35.7019 41 35.4139 40.504C35.1419 40.008 34.7739 39.64 34.3099 39.4C33.8619 39.144 33.3979 39.016 32.9179 39.016ZM55.8438 35.608V49H51.7398V47.032C51.3398 47.688 50.7878 48.208 50.0838 48.592C49.3958 48.96 48.5958 49.144 47.6838 49.144C46.6758 49.144 45.7798 48.92 44.9958 48.472C44.2278 48.008 43.6198 47.344 43.1718 46.48C42.7398 45.616 42.5238 44.6 42.5238 43.432V35.608H46.6038V42.88C46.6038 43.744 46.8278 44.416 47.2758 44.896C47.7398 45.36 48.3718 45.592 49.1718 45.592C49.9718 45.592 50.5958 45.36 51.0438 44.896C51.5078 44.416 51.7398 43.744 51.7398 42.88V35.608H55.8438ZM63.5524 38.104C64.0004 37.288 64.5524 36.648 65.2084 36.184C65.8644 35.704 66.5924 35.464 67.3924 35.464V39.64H66.3844C65.4404 39.64 64.7284 39.864 64.2484 40.312C63.7844 40.76 63.5524 41.544 63.5524 42.664V49H59.4484V35.608H63.5524V38.104ZM74.7323 35.464C76.4443 35.464 77.7563 36.096 78.6683 37.36V35.608H82.7723V48.928C82.7723 50.896 82.2203 52.504 81.1163 53.752C80.0283 55 78.3403 55.624 76.0523 55.624C74.0043 55.624 72.3803 55.208 71.1803 54.376C69.9803 53.544 69.3003 52.272 69.1403 50.56H73.1723C73.5563 51.568 74.5163 52.072 76.0523 52.072C76.8043 52.072 77.4283 51.816 77.9243 51.304C78.4203 50.808 78.6683 50.016 78.6683 48.928V47.056C77.6763 48.464 76.3643 49.168 74.7323 49.168C73.6283 49.168 72.6043 48.88 71.6603 48.304C70.7323 47.728 69.9963 46.92 69.4523 45.88C68.9083 44.84 68.6363 43.656 68.6363 42.328C68.6363 41 68.9083 39.816 69.4523 38.776C69.9963 37.736 70.7323 36.928 71.6603 36.352C72.6043 35.76 73.6283 35.464 74.7323 35.464ZM75.7403 39.016C75.2603 39.016 74.7883 39.144 74.3243 39.4C73.8763 39.64 73.5083 40.008 73.2203 40.504C72.9483 41 72.8123 41.608 72.8123 42.328C72.8123 43.048 72.9483 43.656 73.2203 44.152C73.5083 44.632 73.8763 45 74.3243 45.256C74.7723 45.496 75.2443 45.616 75.7403 45.616C76.2203 45.616 76.6843 45.496 77.1323 45.256C77.5963 45 77.9643 44.624 78.2363 44.128C78.5243 43.632 78.6683 43.024 78.6683 42.304C78.6683 41.584 78.5243 40.984 78.2363 40.504C77.9643 40.008 77.6043 39.64 77.1563 39.4C76.7083 39.144 76.2363 39.016 75.7403 39.016ZM98.9061 42.352C98.9061 42.816 98.8741 43.248 98.8101 43.648H89.5941C89.6741 44.24 89.9381 44.728 90.3861 45.112C90.8341 45.48 91.3941 45.664 92.0661 45.664C92.5781 45.664 92.9621 45.592 93.2181 45.448C93.4741 45.288 93.7461 45.032 94.0341 44.68H98.4741C98.0901 46.024 97.3221 47.112 96.1701 47.944C95.0181 48.76 93.6501 49.168 92.0661 49.168C90.7861 49.168 89.6341 48.888 88.6101 48.328C87.6021 47.768 86.8101 46.968 86.2341 45.928C85.6741 44.872 85.3941 43.656 85.3941 42.28C85.3941 40.904 85.6741 39.704 86.2341 38.68C86.8101 37.64 87.6021 36.848 88.6101 36.304C89.6181 35.744 90.7621 35.464 92.0421 35.464C93.3381 35.464 94.5061 35.736 95.5461 36.28C96.5861 36.808 97.4021 37.592 97.9941 38.632C98.6021 39.672 98.9061 40.912 98.9061 42.352ZM94.6341 41.08C94.5701 40.456 94.2981 39.952 93.8181 39.568C93.3381 39.168 92.7461 38.968 92.0421 38.968C91.4341 38.968 90.9061 39.168 90.4581 39.568C90.0101 39.952 89.7301 40.456 89.6181 41.08H94.6341ZM105.646 38.104C106.094 37.288 106.646 36.648 107.302 36.184C107.958 35.704 108.686 35.464 109.486 35.464V39.64H108.478C107.534 39.64 106.822 39.864 106.342 40.312C105.878 40.76 105.646 41.544 105.646 42.664V49H101.542V35.608H105.646V38.104Z" fill="#FFA900"/>
</svg>
