<svg width="74" height="74" viewBox="0 0 74 74" fill="none" xmlns="http://www.w3.org/2000/svg">
<rect width="74" height="74" rx="37" fill="#FFA900"/>
<path d="M56.9602 33.9583H16.0393C14.7058 33.9583 13.6248 35.0393 13.6248 36.3728V36.627C13.6248 37.9605 14.7058 39.0416 16.0393 39.0416H56.9602C58.2937 39.0416 59.3748 37.9605 59.3748 36.627V36.3728C59.3748 35.0393 58.2937 33.9583 56.9602 33.9583Z" fill="#231F20"/>
<path d="M56.9602 46.6667H16.0393C14.7058 46.6667 13.6248 47.7478 13.6248 49.0813V49.3355C13.6248 50.669 14.7058 51.7501 16.0393 51.7501H56.9602C58.2937 51.7501 59.3748 50.669 59.3748 49.3355V49.0813C59.3748 47.7478 58.2937 46.6667 56.9602 46.6667Z" fill="#231F20"/>
<path d="M56.9604 21.25H16.0396C14.706 21.25 13.625 22.331 13.625 23.6646V23.9188C13.625 25.2523 14.706 26.3333 16.0396 26.3333H56.9604C58.294 26.3333 59.375 25.2523 59.375 23.9188V23.6646C59.375 22.331 58.294 21.25 56.9604 21.25Z" fill="#231F20"/>
</svg>
