<svg width="132" height="23" viewBox="0 0 132 23" fill="none" xmlns="http://www.w3.org/2000/svg">
<path d="M6.04688 9.89062C6.76562 9.70312 7.48958 9.55208 8.21875 9.4375C8.94792 9.3125 9.38542 9.25 9.53125 9.25C9.63542 9.25 9.6875 9.29167 9.6875 9.375C9.6875 9.53125 9.64583 9.69271 9.5625 9.85938C9.39583 10.3385 9.3125 10.7969 9.3125 11.2344C9.3125 11.776 9.625 12.5156 10.25 13.4531C10.875 14.3906 11.1875 15.2604 11.1875 16.0625C11.1875 17.6562 10.4219 19.1927 8.89062 20.6719C7.36979 22.151 5.79167 22.8906 4.15625 22.8906C3.44792 22.8906 2.80208 22.7031 2.21875 22.3281C1.63542 21.9531 1.34375 21.5521 1.34375 21.125C1.34375 20.875 1.63021 20.401 2.20312 19.7031C2.78646 19.0052 3.20312 18.6562 3.45312 18.6562C3.78646 18.6562 4.08333 19.0833 4.34375 19.9375C4.60417 20.7917 5.05208 21.2188 5.6875 21.2188C6.32292 21.2188 6.91667 20.9271 7.46875 20.3438C8.03125 19.75 8.3125 19.1146 8.3125 18.4375C8.3125 17.7812 7.95833 16.9062 7.25 15.8125C6.54167 14.7188 6.07292 13.8021 5.84375 13.0625C4.63542 15.0104 3.10417 17.0052 1.25 19.0469H0.890625V17.6406C3.44271 14.9219 5.16146 12.3385 6.04688 9.89062ZM21.6094 3.14062C21.6094 5.64062 20.6875 6.89062 18.8438 6.89062C17.9479 6.89062 17.1823 6.61979 16.5469 6.07812C17.151 5.16146 17.6198 4.13021 17.9531 2.98438C18.776 3.49479 19.4375 3.75 19.9375 3.75C20.5 3.75 21.0573 3.54688 21.6094 3.14062ZM21.9219 19.0469C19.4844 21.6094 17.6615 22.8906 16.4531 22.8906C15.7865 22.8906 15.224 22.5521 14.7656 21.875C14.3073 21.1875 14.0781 20.3281 14.0781 19.2969C14.0781 17.0781 14.8281 14.0052 16.3281 10.0781L20.2969 9.25H20.4844L18.9219 14.1406C18.276 16.1615 17.9531 17.6042 17.9531 18.4688C17.9531 18.8125 18.026 19.0938 18.1719 19.3125C18.3281 19.5208 18.5208 19.625 18.75 19.625C19.1562 19.625 19.5625 19.4792 19.9688 19.1875C20.3854 18.8854 21.0365 18.2396 21.9219 17.25V19.0469ZM37.2656 19.0469C34.8594 21.5885 32.7969 22.8594 31.0781 22.8594C30.3802 22.8594 29.8177 22.6146 29.3906 22.125C28.9635 21.6354 28.75 20.9792 28.75 20.1562C28.75 19.0417 29.2083 17.3385 30.125 15.0469C30.6146 13.8177 30.8594 13.0365 30.8594 12.7031C30.8594 12.3698 30.7292 12.2031 30.4688 12.2031C30.3229 12.2031 30.1302 12.276 29.8906 12.4219C29.6719 12.5677 29.4167 12.7708 29.125 13.0312C28.8646 13.2708 28.5729 13.5625 28.25 13.9062C27.9688 14.1979 27.6667 14.5312 27.3438 14.9062L26.4688 15.9219C26.0833 16.3906 25.8438 16.8854 25.75 17.4062C25.5938 18.2917 25.4896 19.1042 25.4375 19.8438C25.4062 20.3958 25.3906 21.1406 25.3906 22.0781L21.9375 22.8906C21.8229 21.4844 21.7656 20.4375 21.7656 19.75C21.7656 18.0729 21.9583 16.4844 22.3438 14.9844C22.7396 13.4844 23.3698 11.7969 24.2344 9.92188L28.0469 9.1875C27.2448 11.3438 26.7188 13.0417 26.4688 14.2812C28.1771 12.375 29.5312 11.0573 30.5312 10.3281C31.5417 9.58854 32.4375 9.21875 33.2188 9.21875C33.75 9.21875 34.1927 9.42188 34.5469 9.82812C34.901 10.224 35.0781 10.724 35.0781 11.3281C35.0781 12.3281 34.6302 13.974 33.7344 16.2656C33.1198 17.8385 32.8125 18.8594 32.8125 19.3281C32.8125 19.9531 33.0677 20.2656 33.5781 20.2656C34.3385 20.2656 35.5677 19.2604 37.2656 17.25V19.0469ZM48.9531 19.0469C47.6198 20.3594 46.3958 21.3229 45.2812 21.9375C44.1771 22.5521 43.0208 22.8594 41.8125 22.8594C40.4583 22.8594 39.3385 22.4219 38.4531 21.5469C37.5781 20.6615 37.1406 19.5417 37.1406 18.1875C37.1406 15.9688 37.9479 13.9219 39.5625 12.0469C41.1875 10.1615 42.9427 9.21875 44.8281 9.21875C45.7552 9.21875 46.5104 9.47917 47.0938 10C47.6771 10.5104 47.9688 11.1771 47.9688 12C47.9688 12.2917 47.9115 12.5104 47.7969 12.6562C47.6927 12.8021 47.4896 12.9479 47.1875 13.0938L45.375 13.9531C45.1562 14.0573 44.9948 14.1094 44.8906 14.1094C44.7448 14.1094 44.6719 14.0052 44.6719 13.7969C44.6719 13.7135 44.7031 13.4427 44.7656 12.9844C44.8281 12.5156 44.8594 12.2292 44.8594 12.125C44.8594 11.6667 44.7604 11.2969 44.5625 11.0156C44.375 10.7344 44.1198 10.5938 43.7969 10.5938C43.0365 10.5938 42.3385 11.1562 41.7031 12.2812C41.0781 13.4062 40.7656 14.6875 40.7656 16.125C40.7656 17.3646 41.0625 18.3542 41.6562 19.0938C42.25 19.8333 43.0417 20.2031 44.0312 20.2031C44.875 20.2031 45.6667 19.9635 46.4062 19.4844C47.1562 18.9948 48.0052 18.25 48.9531 17.25V19.0469ZM60.6406 19.0469C59.3177 20.349 58.1302 21.3125 57.0781 21.9375C56.026 22.5521 54.8646 22.8594 53.5938 22.8594C52.1771 22.8594 51.0312 22.4062 50.1562 21.5C49.2917 20.5938 48.8594 19.401 48.8594 17.9219C48.8594 15.7135 49.625 13.7188 51.1562 11.9375C52.6875 10.1458 54.3854 9.25 56.25 9.25C57.2188 9.25 57.9948 9.5 58.5781 10C59.1615 10.5 59.4531 11.1562 59.4531 11.9688C59.4531 14.125 57.1615 15.875 52.5781 17.2188C52.9948 19.25 54.0833 20.2656 55.8438 20.2656C56.5312 20.2656 57.1875 20.0833 57.8125 19.7188C58.4375 19.3438 59.3802 18.5208 60.6406 17.25V19.0469ZM52.4531 16.1562C55.1198 15.4062 56.4531 14.0208 56.4531 12C56.4531 11 56.0885 10.5 55.3594 10.5C54.6719 10.5 54.0156 11.026 53.3906 12.0781C52.7656 13.1198 52.4531 14.4792 52.4531 16.1562ZM75.1094 3.35938C73.4531 4.74479 72.2812 6.04688 71.5938 7.26562C71.3333 7.69271 71.151 7.90625 71.0469 7.90625C70.8385 7.90625 70.6458 7.84896 70.4688 7.73438C70.3021 7.60938 70.2188 7.47396 70.2188 7.32812C70.2188 7.15104 70.4896 6.67188 71.0312 5.89062C71.5729 5.09896 72.4792 4.10938 73.75 2.92188C75.0312 1.73438 75.9792 0.994792 76.5938 0.703125C77.2083 0.411458 78.0052 0.265625 78.9844 0.265625C79.4948 0.265625 79.75 0.395833 79.75 0.65625C79.75 0.677083 79.7396 0.833333 79.7188 1.125V1.15625L78.3906 6.42188L76.6875 12.9531C76.0312 15.4427 75.4323 17.5729 74.8906 19.3438C74.3594 21.1042 73.9896 22.0781 73.7812 22.2656C73.5833 22.4531 73.1354 22.6042 72.4375 22.7188C71.7396 22.8333 70.9479 22.8906 70.0625 22.8906C69.5208 22.8906 69.25 22.7604 69.25 22.5C69.25 22.2604 69.3385 21.9323 69.5156 21.5156C71.2031 16.9427 73.0677 10.8906 75.1094 3.35938ZM90.6094 0.265625C92.349 0.265625 93.7552 0.927083 94.8281 2.25C95.901 3.5625 96.4375 5.29688 96.4375 7.45312C96.4375 10.2135 95.7448 12.7708 94.3594 15.125C92.9844 17.4688 91.2812 19.3438 89.25 20.75C87.2188 22.1562 85.7135 22.8594 84.7344 22.8594C84.7135 22.8594 84.5729 22.7812 84.3125 22.625C84.0521 22.4688 83.9219 22.3438 83.9219 22.25C83.9219 22.1458 84.0521 22.0156 84.3125 21.8594C86.0312 20.901 87.5156 19.3802 88.7656 17.2969C90.026 15.2031 90.9688 12.875 91.5938 10.3125C92.2188 7.75 92.5312 5.82812 92.5312 4.54688C92.5312 3.61979 92.3229 2.86458 91.9062 2.28125C91.5 1.69792 90.974 1.40625 90.3281 1.40625C89.1823 1.40625 88.2292 2.31771 87.4688 4.14062C86.7083 5.96354 86.3281 7.64583 86.3281 9.1875C86.3281 9.88542 86.5104 10.4948 86.875 11.0156C87.2396 11.526 87.6458 11.7812 88.0938 11.7812C88.3646 11.7812 88.6302 11.7344 88.8906 11.6406C89.1615 11.5365 89.3229 11.4844 89.375 11.4844C89.4479 11.4844 89.5208 11.5365 89.5938 11.6406C89.6771 11.7344 89.7188 11.8333 89.7188 11.9375C89.7188 12.0521 89.2865 12.4062 88.4219 13C87.5677 13.5938 86.776 13.8906 86.0469 13.8906C84.9531 13.8906 83.9896 13.3906 83.1562 12.3906C82.3229 11.3802 81.9062 10.1979 81.9062 8.84375C81.9062 6.61458 82.7917 4.63021 84.5625 2.89062C86.3438 1.14062 88.3594 0.265625 90.6094 0.265625ZM112.781 4.9375H113.734C113.859 4.9375 113.922 5.01042 113.922 5.15625C113.922 5.30208 113.859 5.57812 113.734 5.98438C113.568 6.06771 113.333 6.10938 113.031 6.10938C112.646 6.10938 112.359 6.07812 112.172 6.01562C111.474 7.29688 110.214 8.56771 108.391 9.82812C110.328 11.901 111.297 13.8333 111.297 15.625C111.297 17.5104 110.531 19.1927 109 20.6719C107.479 22.151 105.729 22.8906 103.75 22.8906C102.177 22.8906 100.88 22.4583 99.8594 21.5938C98.849 20.7188 98.3438 19.6146 98.3438 18.2812C98.3438 17.0729 98.75 15.9219 99.5625 14.8281C100.385 13.724 101.781 12.5573 103.75 11.3281C102.365 9.75521 101.672 8.15625 101.672 6.53125C101.672 4.96875 102.203 3.60938 103.266 2.45312C104.339 1.29688 105.812 0.557292 107.688 0.234375C108.135 0.557292 108.359 0.734375 108.359 0.765625C108.359 0.890625 108.188 1.02083 107.844 1.15625C107.031 1.54167 106.396 2.05208 105.938 2.6875C105.479 3.32292 105.25 4.00521 105.25 4.73438C105.25 5.43229 105.432 6.08333 105.797 6.6875C106.172 7.29167 106.75 8.03125 107.531 8.90625C109.177 7.94792 110.37 6.79167 111.109 5.4375C110.318 4.88542 109.922 4.10938 109.922 3.10938C109.922 2.33854 110.13 1.67188 110.547 1.10938C110.974 0.546875 111.474 0.265625 112.047 0.265625C112.464 0.265625 112.797 0.4375 113.047 0.78125C113.297 1.125 113.422 1.59375 113.422 2.1875C113.422 3.10417 113.208 4.02083 112.781 4.9375ZM107.719 17.9531C107.719 17.026 107.464 16.1146 106.953 15.2188C106.453 14.3125 105.661 13.3177 104.578 12.2344C101.234 14.1615 99.5625 16.1562 99.5625 18.2188C99.5625 19.2083 99.9479 20.0365 100.719 20.7031C101.5 21.3698 102.479 21.7031 103.656 21.7031C104.833 21.7031 105.802 21.349 106.562 20.6406C107.333 19.9323 107.719 19.0365 107.719 17.9531ZM130.234 6.5C130.307 6.5625 130.464 6.64062 130.703 6.73438C130.943 6.82812 131.062 6.98438 131.062 7.20312C131.062 7.51562 131.005 7.72917 130.891 7.84375C130.786 7.94792 130.62 7.98438 130.391 7.95312C130.172 7.92188 130.042 7.90625 130 7.90625C127.938 17.875 124.63 22.8594 120.078 22.8594C118.682 22.8594 117.562 22.2917 116.719 21.1562C115.875 20.0208 115.453 18.5052 115.453 16.6094C115.453 13.7865 116.141 11 117.516 8.25C118.891 5.48958 120.448 3.47396 122.188 2.20312C123.927 0.932292 125.135 0.296875 125.812 0.296875C125.979 0.296875 126.062 0.479167 126.062 0.84375C126.062 1.11458 125.927 1.38021 125.656 1.64062C124.031 3.23438 122.682 5.5625 121.609 8.625C120.547 11.6771 120.016 14.3906 120.016 16.7656C120.016 17.9323 120.203 18.849 120.578 19.5156C120.964 20.1823 121.484 20.5156 122.141 20.5156C123.318 20.5156 124.49 19.4844 125.656 17.4219C126.833 15.349 127.911 12.0938 128.891 7.65625C127.328 7.19792 126.547 6.21354 126.547 4.70312C126.547 3.81771 126.792 2.85938 127.281 1.82812C127.771 0.786458 128.339 0.265625 128.984 0.265625C129.922 0.265625 130.391 1.39583 130.391 3.65625C130.391 4.63542 130.339 5.58333 130.234 6.5Z" fill="white"/>
</svg>
