<svg width="229" height="1024" viewBox="0 0 229 1024" fill="none" xmlns="http://www.w3.org/2000/svg">
<mask id="path-1-outside-1_0_60" maskUnits="userSpaceOnUse" x="-0.995319" y="-22.6782" width="230.96" height="1090.87" fill="black">
<rect fill="white" x="-0.995319" y="-22.6782" width="230.96" height="1090.87"/>
<path d="M210.998 994.506L129.106 993.379L0.631024 1063.32L1.33322 1012.32L85.3449 968.474L85.3532 967.874L2.55586 923.529L3.2374 874.034L129.438 947.479L211.63 948.611L210.998 994.506ZM4.18914 804.917L132.577 806.684C147.376 806.888 158.514 804.141 165.994 798.444C173.273 792.743 177.006 783.094 177.193 769.495C177.38 755.896 173.914 746.148 166.795 740.249C159.475 734.348 148.416 731.295 133.618 731.092L5.23004 729.324L5.84136 684.928L129.43 686.63C144.828 686.842 158.206 688.526 169.564 691.683C180.724 694.637 189.959 699.464 197.267 706.166C204.376 712.864 209.658 721.438 213.114 731.886C216.371 742.332 217.896 755.054 217.689 770.053C217.483 785.051 215.608 797.727 212.065 808.079C208.322 818.428 202.806 826.853 195.516 833.354C188.026 839.851 178.66 844.522 167.42 847.368C155.983 850.011 142.565 851.226 127.166 851.014L3.57782 849.312L4.18914 804.917ZM80.6117 484.238L80.5993 485.137L110.986 500.857L184.517 542.674L110.175 581.554L76.9588 596.998L76.9464 597.898L216.433 599.819L215.842 642.715L6.46234 639.831L7.12735 591.536L105.924 541.592L105.933 540.992L8.54 488.946L9.20915 440.35L218.589 443.233L217.999 486.129L80.6117 484.238ZM83.996 238.46L83.9836 239.36L114.37 255.08L187.901 296.896L113.559 335.776L80.3431 351.22L80.3307 352.12L219.817 354.041L219.227 396.937L9.84665 394.054L10.5117 345.758L109.309 295.814L109.317 295.214L11.9243 243.168L12.5935 194.573L221.974 197.456L221.383 240.352L83.996 238.46ZM223.317 99.8644L141.425 98.7368L12.9501 168.674L13.6523 117.679L97.664 73.8319L97.6722 73.2319L14.8749 28.8877L15.5565 -20.6076L141.757 52.837L223.949 53.9688L223.317 99.8644Z"/>
</mask>
<path d="M210.998 994.506L210.985 995.506L211.985 995.52L211.998 994.52L210.998 994.506ZM129.106 993.379L129.12 992.379L128.858 992.375L128.628 992.5L129.106 993.379ZM0.631024 1063.32L-0.368881 1063.3L-0.39242 1065.01L1.10914 1064.19L0.631024 1063.32ZM1.33322 1012.32L0.870526 1011.43L0.341529 1011.71L0.333313 1012.31L1.33322 1012.32ZM85.3449 968.474L85.8076 969.36L86.3366 969.084L86.3448 968.487L85.3449 968.474ZM85.3532 967.874L86.3531 967.887L86.3614 967.279L85.8253 966.992L85.3532 967.874ZM2.55586 923.53L1.55596 923.516L1.54758 924.124L2.08374 924.411L2.55586 923.53ZM3.2374 874.034L3.74039 873.17L2.26107 872.309L2.2375 874.02L3.2374 874.034ZM129.438 947.479L128.935 948.343L129.162 948.475L129.424 948.479L129.438 947.479ZM211.63 948.611L212.63 948.624L212.644 947.624L211.644 947.611L211.63 948.611ZM211.012 993.506L129.12 992.379L129.092 994.378L210.985 995.506L211.012 993.506ZM128.628 992.5L0.152908 1062.44L1.10914 1064.19L129.584 994.257L128.628 992.5ZM1.63093 1063.33L2.33312 1012.33L0.333313 1012.31L-0.368881 1063.3L1.63093 1063.33ZM1.79591 1013.21L85.8076 969.36L84.8822 967.587L0.870526 1011.43L1.79591 1013.21ZM86.3448 968.487L86.3531 967.887L84.3533 967.86L84.345 968.46L86.3448 968.487ZM85.8253 966.992L3.02799 922.648L2.08374 924.411L84.881 968.755L85.8253 966.992ZM3.55577 923.543L4.23731 874.048L2.2375 874.02L1.55596 923.516L3.55577 923.543ZM2.73442 874.898L128.935 948.343L129.941 946.614L3.74039 873.17L2.73442 874.898ZM129.424 948.479L211.617 949.61L211.644 947.611L129.452 946.479L129.424 948.479ZM210.63 948.597L209.998 994.492L211.998 994.52L212.63 948.624L210.63 948.597ZM4.18914 804.917L4.20291 803.917L3.20301 803.903L3.18924 804.903L4.18914 804.917ZM165.994 798.444L166.6 799.239L166.61 799.231L165.994 798.444ZM166.795 740.249L167.433 739.479L167.423 739.471L166.795 740.249ZM5.23004 729.324L4.23014 729.31L4.21637 730.31L5.21627 730.324L5.23004 729.324ZM5.84136 684.928L5.85513 683.928L4.85523 683.914L4.84146 684.914L5.84136 684.928ZM169.564 691.683L169.296 692.646L169.308 692.649L169.564 691.683ZM197.267 706.166L197.953 705.438L197.943 705.429L197.267 706.166ZM213.114 731.886L214.069 731.589L214.067 731.58L214.064 731.572L213.114 731.886ZM212.065 808.079L213.006 808.419L213.009 808.411L213.011 808.403L212.065 808.079ZM195.516 833.354L196.171 834.109L196.181 834.1L195.516 833.354ZM167.42 847.368L167.645 848.342L167.655 848.34L167.666 848.337L167.42 847.368ZM3.57782 849.312L2.57792 849.299L2.56415 850.298L3.56405 850.312L3.57782 849.312ZM4.17537 805.916L132.563 807.684L132.591 805.684L4.20291 803.917L4.17537 805.916ZM132.563 807.684C147.465 807.889 158.866 805.131 166.6 799.239L165.388 797.648C158.163 803.152 147.286 805.887 132.591 805.684L132.563 807.684ZM166.61 799.231C174.223 793.269 178.004 783.263 178.193 769.509L176.193 769.481C176.008 782.925 172.322 792.218 165.377 797.656L166.61 799.231ZM178.193 769.509C178.383 755.755 174.879 745.648 167.433 739.479L166.157 741.019C172.95 746.647 176.378 756.038 176.193 769.481L178.193 769.509ZM167.423 739.471C159.854 733.369 148.534 730.297 133.632 730.092L133.604 732.091C148.299 732.294 159.097 735.327 166.167 741.028L167.423 739.471ZM133.632 730.092L5.24381 728.324L5.21627 730.324L133.604 732.091L133.632 730.092ZM6.22995 729.337L6.84127 684.942L4.84146 684.914L4.23014 729.31L6.22995 729.337ZM5.8276 685.928L129.416 687.63L129.443 685.63L5.85513 683.928L5.8276 685.928ZM129.416 687.63C144.753 687.841 158.042 689.518 169.296 692.646L169.832 690.719C158.371 687.534 144.903 685.843 129.443 685.63L129.416 687.63ZM169.308 692.649C180.338 695.569 189.42 700.327 196.591 706.903L197.943 705.429C190.497 698.601 181.111 693.705 169.82 690.716L169.308 692.649ZM196.581 706.893C203.554 713.464 208.754 721.889 212.165 732.2L214.064 731.572C210.562 720.986 205.197 712.264 197.953 705.438L196.581 706.893ZM212.16 732.184C215.376 742.499 216.895 755.11 216.69 770.039L218.689 770.067C218.897 754.999 217.366 742.165 214.069 731.589L212.16 732.184ZM216.69 770.039C216.484 784.968 214.618 797.532 211.119 807.755L213.011 808.403C216.599 797.921 218.482 785.134 218.689 770.067L216.69 770.039ZM211.125 807.739C207.431 817.952 202.001 826.231 194.85 832.607L196.181 834.1C203.61 827.476 209.214 818.905 213.006 808.419L211.125 807.739ZM194.86 832.598C187.507 838.977 178.289 843.585 167.175 846.399L167.666 848.337C179.032 845.46 188.544 840.725 196.171 834.109L194.86 832.598ZM167.195 846.394C155.856 849.014 142.521 850.225 127.18 850.014L127.152 852.014C142.608 852.227 156.11 851.008 167.645 848.342L167.195 846.394ZM127.18 850.014L3.59159 848.312L3.56405 850.312L127.152 852.014L127.18 850.014ZM4.57773 849.326L5.18905 804.93L3.18924 804.903L2.57792 849.299L4.57773 849.326ZM80.6117 484.238L80.6254 483.238L79.6255 483.224L79.6118 484.224L80.6117 484.238ZM80.5993 485.137L79.5994 485.124L79.5908 485.742L80.1398 486.026L80.5993 485.137ZM110.986 500.857L111.48 499.988L111.463 499.978L111.445 499.969L110.986 500.857ZM184.517 542.674L184.98 543.56L186.604 542.71L185.011 541.804L184.517 542.674ZM110.175 581.554L110.596 582.461L110.617 582.451L110.638 582.44L110.175 581.554ZM76.9588 596.998L76.5371 596.091L75.9675 596.356L75.9589 596.984L76.9588 596.998ZM76.9464 597.898L75.9465 597.884L75.9327 598.884L76.9326 598.898L76.9464 597.898ZM216.433 599.819L217.433 599.832L217.447 598.832L216.447 598.819L216.433 599.819ZM215.842 642.715L215.829 643.714L216.829 643.728L216.842 642.728L215.842 642.715ZM6.46234 639.831L5.46243 639.818L5.44866 640.818L6.44857 640.831L6.46234 639.831ZM7.12735 591.536L6.6762 590.644L6.13579 590.917L6.12745 591.522L7.12735 591.536ZM105.924 541.592L106.376 542.484L106.916 542.211L106.924 541.605L105.924 541.592ZM105.933 540.992L106.933 541.005L106.941 540.397L106.404 540.11L105.933 540.992ZM8.54 488.946L7.5401 488.932L7.53172 489.541L8.06869 489.828L8.54 488.946ZM9.20916 440.35L9.22292 439.35L8.22302 439.337L8.20925 440.336L9.20916 440.35ZM218.589 443.233L219.589 443.247L219.603 442.247L218.603 442.233L218.589 443.233ZM217.999 486.129L217.985 487.129L218.985 487.143L218.999 486.143L217.999 486.129ZM79.6118 484.224L79.5994 485.124L81.5992 485.151L81.6116 484.251L79.6118 484.224ZM80.1398 486.026L110.526 501.746L111.445 499.969L81.0588 484.249L80.1398 486.026ZM110.491 501.727L184.023 543.543L185.011 541.804L111.48 499.988L110.491 501.727ZM184.053 541.788L109.711 580.668L110.638 582.44L184.98 543.56L184.053 541.788ZM109.753 580.647L76.5371 596.091L77.3804 597.905L110.596 582.461L109.753 580.647ZM75.9589 596.984L75.9465 597.884L77.9463 597.912L77.9587 597.012L75.9589 596.984ZM76.9326 598.898L216.419 600.818L216.447 598.819L76.9601 596.898L76.9326 598.898ZM215.433 599.805L214.843 642.701L216.842 642.728L217.433 599.832L215.433 599.805ZM215.856 641.715L6.4761 638.831L6.44857 640.831L215.829 643.714L215.856 641.715ZM7.46224 639.845L8.12726 591.55L6.12745 591.522L5.46243 639.818L7.46224 639.845ZM7.57851 592.428L106.376 542.484L105.473 540.699L6.6762 590.644L7.57851 592.428ZM106.924 541.605L106.933 541.005L104.933 540.978L104.924 541.578L106.924 541.605ZM106.404 540.11L9.01132 488.064L8.06869 489.828L105.461 541.874L106.404 540.11ZM9.53991 488.959L10.2091 440.364L8.20925 440.336L7.5401 488.932L9.53991 488.959ZM9.19539 441.35L218.576 444.233L218.603 442.233L9.22292 439.35L9.19539 441.35ZM217.589 443.22L216.999 486.116L218.999 486.143L219.589 443.247L217.589 443.22ZM218.012 485.129L80.6254 483.238L80.5979 485.237L217.985 487.129L218.012 485.129ZM83.996 238.46L84.0097 237.46L83.0098 237.446L82.9961 238.446L83.996 238.46ZM83.9836 239.36L82.9837 239.346L82.9752 239.964L83.5241 240.248L83.9836 239.36ZM114.37 255.08L114.864 254.211L114.847 254.201L114.83 254.192L114.37 255.08ZM187.901 296.896L188.365 297.782L189.989 296.933L188.396 296.027L187.901 296.896ZM113.559 335.776L113.98 336.683L114.002 336.673L114.022 336.662L113.559 335.776ZM80.3431 351.22L79.9215 350.314L79.3518 350.579L79.3432 351.207L80.3431 351.22ZM80.3307 352.12L79.3308 352.107L79.317 353.107L80.3169 353.12L80.3307 352.12ZM219.817 354.041L220.817 354.055L220.831 353.055L219.831 353.041L219.817 354.041ZM219.227 396.937L219.213 397.937L220.213 397.951L220.227 396.951L219.227 396.937ZM9.84665 394.054L8.84674 394.04L8.83297 395.04L9.83288 395.054L9.84665 394.054ZM10.5117 345.758L10.0605 344.866L9.5201 345.139L9.51176 345.745L10.5117 345.758ZM109.309 295.814L109.76 296.706L110.3 296.433L110.309 295.828L109.309 295.814ZM109.317 295.214L110.317 295.228L110.325 294.619L109.788 294.332L109.317 295.214ZM11.9243 243.168L10.9244 243.154L10.916 243.763L11.453 244.05L11.9243 243.168ZM12.5935 194.573L12.6072 193.573L11.6073 193.559L11.5936 194.559L12.5935 194.573ZM221.974 197.456L222.974 197.47L222.987 196.47L221.987 196.456L221.974 197.456ZM221.383 240.352L221.369 241.352L222.369 241.366L222.383 240.366L221.383 240.352ZM82.9961 238.446L82.9837 239.346L84.9835 239.374L84.9959 238.474L82.9961 238.446ZM83.5241 240.248L113.911 255.968L114.83 254.192L84.4431 238.472L83.5241 240.248ZM113.876 255.949L187.407 297.765L188.396 296.027L114.864 254.211L113.876 255.949ZM187.438 296.01L113.095 334.89L114.022 336.662L188.365 297.782L187.438 296.01ZM113.137 334.87L79.9215 350.314L80.7647 352.127L113.98 336.683L113.137 334.87ZM79.3432 351.207L79.3308 352.107L81.3306 352.134L81.343 351.234L79.3432 351.207ZM80.3169 353.12L219.804 355.041L219.831 353.041L80.3445 351.12L80.3169 353.12ZM218.818 354.027L218.227 396.923L220.227 396.951L220.817 354.055L218.818 354.027ZM219.241 395.937L9.86042 393.054L9.83288 395.054L219.213 397.937L219.241 395.937ZM10.8466 394.068L11.5116 345.772L9.51176 345.745L8.84674 394.04L10.8466 394.068ZM10.9628 346.651L109.76 296.706L108.858 294.922L10.0605 344.866L10.9628 346.651ZM110.309 295.828L110.317 295.228L108.317 295.2L108.309 295.8L110.309 295.828ZM109.788 294.332L12.3956 242.286L11.453 244.05L108.846 296.096L109.788 294.332ZM12.9242 243.182L13.5934 194.587L11.5936 194.559L10.9244 243.154L12.9242 243.182ZM12.5797 195.573L221.96 198.456L221.987 196.456L12.6072 193.573L12.5797 195.573ZM220.974 197.442L220.383 240.338L222.383 240.366L222.974 197.47L220.974 197.442ZM221.397 239.352L84.0097 237.46L83.9822 239.46L221.369 241.352L221.397 239.352ZM223.317 99.8644L223.304 100.864L224.304 100.878L224.317 99.8782L223.317 99.8644ZM141.425 98.7367L141.439 97.7368L141.177 97.7332L140.947 97.8585L141.425 98.7367ZM12.9501 168.674L11.9502 168.661L11.9266 170.37L13.4282 169.553L12.9501 168.674ZM13.6523 117.679L13.1896 116.793L12.6606 117.069L12.6524 117.666L13.6523 117.679ZM97.664 73.8319L98.1267 74.7184L98.6556 74.4423L98.6639 73.8456L97.664 73.8319ZM97.6722 73.2319L98.6721 73.2457L98.6805 72.6376L98.1443 72.3504L97.6722 73.2319ZM14.8749 28.8877L13.875 28.874L13.8666 29.4821L14.4028 29.7693L14.8749 28.8877ZM15.5565 -20.6076L16.0595 -21.4718L14.5801 -22.3328L14.5566 -20.6213L15.5565 -20.6076ZM141.757 52.837L141.254 53.7012L141.481 53.8333L141.743 53.8369L141.757 52.837ZM223.949 53.9688L224.949 53.9825L224.963 52.9826L223.963 52.9689L223.949 53.9688ZM223.331 98.8645L141.439 97.7368L141.411 99.7366L223.304 100.864L223.331 98.8645ZM140.947 97.8585L12.472 167.796L13.4282 169.553L141.903 99.6151L140.947 97.8585ZM13.95 168.688L14.6522 117.693L12.6524 117.666L11.9502 168.661L13.95 168.688ZM14.115 118.566L98.1267 74.7184L97.2013 72.9453L13.1896 116.793L14.115 118.566ZM98.6639 73.8456L98.6721 73.2457L96.6723 73.2182L96.664 73.8181L98.6639 73.8456ZM98.1443 72.3504L15.347 28.0062L14.4028 29.7693L97.2001 74.1135L98.1443 72.3504ZM15.8748 28.9015L16.5564 -20.5938L14.5566 -20.6213L13.875 28.874L15.8748 28.9015ZM15.0535 -19.7433L141.254 53.7012L142.26 51.9727L16.0595 -21.4718L15.0535 -19.7433ZM141.743 53.8369L223.936 54.9687L223.963 52.9689L141.771 51.8371L141.743 53.8369ZM222.95 53.955L222.318 99.8506L224.317 99.8782L224.949 53.9825L222.95 53.955Z" fill="white" fill-opacity="0.5" mask="url(#path-1-outside-1_0_60)"/>
</svg>
