<svg xmlns="http://www.w3.org/2000/svg" fill="none" viewBox="0 0 130 314">
  <defs></defs>
  <path fill="#000" d="M23.6364 178.549C23.6364 200.538 29.3266 214.611 46.3973 240.557L55.5892 233.961C45.9596 219.008 45.9596 210.213 45.9596 198.779C45.9596 181.188 66.0943 165.356 89.2929 142.048C110.741 120.499 130 96.3109 130 63.7675C130 29.465 102.862 0 64.3434 0C37.2054 0 16.633 10.5546 0 22.8684L10.505 55.4118C19.697 33.423 35.8923 15.3922 59.5286 15.3922C80.101 15.3922 96.2963 27.2661 96.2963 48.3754C96.2963 71.2437 78.3502 84.8768 56.0269 107.745C30.6397 134.571 23.6364 150.843 23.6364 178.549ZM79.2256 289.812L54.7138 265.625L30.202 289.812L54.7138 314L79.2256 289.812Z"></path>
</svg>